<svg id="Linkedin" xmlns="http://www.w3.org/2000/svg" width="14" height="12.789" viewBox="0 0 14 12.789">
  <path id="Vector" d="M.455,8.865h1.82a.455.455,0,0,0,.455-.455V.455A.455.455,0,0,0,2.275,0H.455A.455.455,0,0,0,0,.455V8.41A.455.455,0,0,0,.455,8.865Z" transform="translate(0 3.924)" fill="#fff"/>
  <path id="Vector-2" data-name="Vector" d="M.455,2.525h1.82a.455.455,0,0,0,.455-.455V.455A.455.455,0,0,0,2.275,0H.455A.455.455,0,0,0,0,.455V2.071A.455.455,0,0,0,.455,2.525Z" fill="#fff"/>
  <path id="Vector-3" data-name="Vector" d="M8.717,1.156A2.767,2.767,0,0,0,7.586.325,4.1,4.1,0,0,0,5.935,0,4.044,4.044,0,0,0,2.827,1.4c-.169.186-.292.145-.292-.106V.688A.455.455,0,0,0,2.08.233H.455A.455.455,0,0,0,0,.688V8.643A.455.455,0,0,0,.455,9.1h1.82a.455.455,0,0,0,.455-.455V5.876a8.9,8.9,0,0,1,.209-2.37,1.957,1.957,0,0,1,.772-1.03,2.189,2.189,0,0,1,1.272-.389,1.624,1.624,0,0,1,.947.272,1.516,1.516,0,0,1,.568.762,8.134,8.134,0,0,1,.175,2.161V8.643a.455.455,0,0,0,.455.455h1.82A.455.455,0,0,0,9.4,8.643V4.138A8.532,8.532,0,0,0,9.252,2.3,3.007,3.007,0,0,0,8.717,1.156Z" transform="translate(4.598 3.691)" fill="#fff"/>
</svg>
