<svg xmlns="http://www.w3.org/2000/svg" width="15" height="12.188" viewBox="0 0 15 12.188">
  <path id="Vector" d="M15,1.443a6.411,6.411,0,0,1-1.772.486,3.058,3.058,0,0,0,1.353-1.7,6.146,6.146,0,0,1-1.95.744,3.075,3.075,0,0,0-5.319,2.1,3.166,3.166,0,0,0,.071.7A8.7,8.7,0,0,1,1.044.561a3.076,3.076,0,0,0,.945,4.11A3.037,3.037,0,0,1,.6,4.292v.034A3.089,3.089,0,0,0,3.064,7.347a3.069,3.069,0,0,1-.806.1A2.719,2.719,0,0,1,1.675,7.4,3.1,3.1,0,0,0,4.549,9.538,6.179,6.179,0,0,1,.736,10.85,5.76,5.76,0,0,1,0,10.807a8.657,8.657,0,0,0,4.718,1.38A8.692,8.692,0,0,0,13.47,3.437c0-.136,0-.267-.011-.4A6.135,6.135,0,0,0,15,1.443Z" fill="#fff"/>
</svg>
